<svg width="42" height="43" viewBox="0 0 42 43" fill="none" xmlns="http://www.w3.org/2000/svg">
<path fill-rule="evenodd" clip-rule="evenodd" d="M20.4956 24C21.6002 24 22.4956 22.8807 22.4956 21.5C22.4956 20.1193 21.6002 19 20.4956 19C19.391 19 18.4956 20.1193 18.4956 21.5C18.4956 22.8807 19.391 24 20.4956 24Z" stroke="#CFBBBB" stroke-width="2"/>
<path d="M15.5672 2.36754L14.6185 2.05132L14.6185 2.05132L15.5672 2.36754ZM14.0382 6.95439L14.4489 7.8662L14.8484 7.68628L14.9869 7.27062L14.0382 6.95439ZM11.2557 8.56373L11.0553 9.54343L11.4852 9.63142L11.8411 9.37452L11.2557 8.56373ZM6.51502 7.59362L6.7155 6.61392H6.7155L6.51502 7.59362ZM4.38201 8.55301L5.24804 9.05301L4.38201 8.55301ZM1.26797 13.9467L0.401949 13.4467L1.26797 13.9467ZM1.50362 16.2736L0.755415 16.9371L0.755415 16.9371L1.50362 16.2736ZM4.71403 19.894L5.70907 19.9936L5.75262 19.558L5.46223 19.2306L4.71403 19.894ZM4.714 23.1057L5.4622 23.7692L5.75259 23.4417L5.70904 23.0062L4.714 23.1057ZM1.50362 26.7261L2.25182 27.3895H2.25182L1.50362 26.7261ZM1.26798 29.053L2.134 28.553L1.26798 29.053ZM4.38201 34.4467L5.24804 33.9467H5.24804L4.38201 34.4467ZM6.51502 35.4061L6.7155 36.3858H6.7155L6.51502 35.4061ZM11.2554 34.436L11.8408 33.6253L11.4849 33.3683L11.0549 33.4563L11.2554 34.436ZM14.0382 36.0456L14.9869 35.7294L14.8484 35.3137L14.4489 35.1338L14.0382 36.0456ZM15.5672 40.6325L16.5159 40.3162L15.5672 40.6325ZM25.59 40.6325L26.5387 40.9487L25.59 40.6325ZM27.119 36.0456L26.7083 35.1338L26.3088 35.3137L26.1703 35.7294L27.119 36.0456ZM29.9018 34.4361L30.1022 33.4564L29.6723 33.3684L29.3164 33.6253L29.9018 34.4361ZM34.642 35.4061L34.8425 34.4264L34.642 35.4061ZM36.775 34.4467L37.641 34.9467L36.775 34.4467ZM39.889 29.053L39.023 28.553L39.889 29.053ZM39.6534 26.7261L38.9052 27.3895V27.3895L39.6534 26.7261ZM36.4432 23.1059L35.4481 23.0063L35.4046 23.4419L35.695 23.7693L36.4432 23.1059ZM36.4432 19.8939L35.695 19.2304L35.4046 19.5579L35.4481 19.9934L36.4432 19.8939ZM39.6534 16.2736L38.9052 15.6101L39.6534 16.2736ZM39.8891 13.9467L39.023 14.4467V14.4467L39.8891 13.9467ZM36.775 8.55301L37.641 8.05301V8.05301L36.775 8.55301ZM34.642 7.59361L34.4415 6.61392L34.642 7.59361ZM29.9014 8.5637L29.3161 9.37449L29.6719 9.63139L30.1019 9.5434L29.9014 8.5637ZM27.119 6.95439L26.1703 7.27062L26.3088 7.68628L26.7083 7.8662L27.119 6.95439ZM25.59 2.36754L26.5387 2.05132V2.05132L25.59 2.36754ZM16.5159 2.68377C16.652 2.27543 17.0341 2 17.4646 2V0C16.1733 0 15.0269 0.826288 14.6185 2.05132L16.5159 2.68377ZM14.9869 7.27062L16.5159 2.68377L14.6185 2.05132L13.0896 6.63817L14.9869 7.27062ZM11.8411 9.37452C12.6532 8.78823 13.5263 8.28169 14.4489 7.8662L13.6276 6.04259C12.5808 6.51401 11.5908 7.08848 10.6704 7.75294L11.8411 9.37452ZM6.31454 8.57331L11.0553 9.54343L11.4562 7.58403L6.7155 6.61392L6.31454 8.57331ZM5.24804 9.05301C5.46325 8.68025 5.89285 8.48702 6.31454 8.57331L6.7155 6.61392C5.45043 6.35504 4.16163 6.93472 3.51599 8.05301L5.24804 9.05301ZM2.134 14.4467L5.24804 9.05301L3.51599 8.05301L0.401949 13.4467L2.134 14.4467ZM2.25182 15.6102C1.96624 15.2881 1.91878 14.8194 2.134 14.4467L0.401949 13.4467C-0.243696 14.565 -0.101318 15.9709 0.755415 16.9371L2.25182 15.6102ZM5.46223 19.2306L2.25182 15.6102L0.755415 16.9371L3.96583 20.5575L5.46223 19.2306ZM5.63416 21.5C5.63416 20.9912 5.65954 20.4887 5.70907 19.9936L3.71899 19.7945C3.66287 20.3557 3.63416 20.9246 3.63416 21.5H5.63416ZM5.70904 23.0062C5.65953 22.5111 5.63416 22.0087 5.63416 21.5H3.63416C3.63416 22.0753 3.66286 22.6441 3.71896 23.2052L5.70904 23.0062ZM2.25182 27.3895L5.4622 23.7692L3.9658 22.4422L0.755418 26.0626L2.25182 27.3895ZM2.134 28.553C1.91879 28.1802 1.96625 27.7116 2.25182 27.3895L0.755418 26.0626C-0.101315 27.0287 -0.243696 28.4347 0.40195 29.553L2.134 28.553ZM5.24804 33.9467L2.134 28.553L0.40195 29.553L3.51599 34.9467L5.24804 33.9467ZM6.31454 34.4264C5.89285 34.5127 5.46325 34.3194 5.24804 33.9467L3.51599 34.9467C4.16163 36.065 5.45043 36.6446 6.7155 36.3858L6.31454 34.4264ZM11.0549 33.4563L6.31454 34.4264L6.7155 36.3858L11.4559 35.4157L11.0549 33.4563ZM14.4489 35.1338C13.5262 34.7183 12.653 34.2116 11.8408 33.6253L10.67 35.2468C11.5905 35.9114 12.5807 36.4859 13.6276 36.9574L14.4489 35.1338ZM16.5159 40.3162L14.9869 35.7294L13.0896 36.3618L14.6185 40.9487L16.5159 40.3162ZM17.4646 41C17.0341 41 16.652 40.7246 16.5159 40.3162L14.6185 40.9487C15.0269 42.1737 16.1733 43 17.4646 43V41ZM23.6926 41H17.4646V43H23.6926V41ZM24.6413 40.3162C24.5052 40.7246 24.1231 41 23.6926 41V43C24.9839 43 26.1303 42.1737 26.5387 40.9487L24.6413 40.3162ZM26.1703 35.7294L24.6413 40.3162L26.5387 40.9487L28.0676 36.3618L26.1703 35.7294ZM29.3164 33.6253C28.5042 34.2117 27.631 34.7183 26.7083 35.1338L27.5296 36.9574C28.5765 36.4859 29.5666 35.9114 30.4871 35.2468L29.3164 33.6253ZM34.8425 34.4264L30.1022 33.4564L29.7013 35.4158L34.4415 36.3858L34.8425 34.4264ZM35.909 33.9467C35.6938 34.3194 35.2642 34.5127 34.8425 34.4264L34.4415 36.3858C35.7066 36.6447 36.9954 36.065 37.641 34.9467L35.909 33.9467ZM39.023 28.553L35.909 33.9467L37.641 34.9467L40.7551 29.553L39.023 28.553ZM38.9052 27.3895C39.1908 27.7116 39.2382 28.1802 39.023 28.553L40.7551 29.553C41.4007 28.4347 41.2583 27.0287 40.4016 26.0626L38.9052 27.3895ZM35.695 23.7693L38.9052 27.3895L40.4016 26.0626L37.1914 22.4424L35.695 23.7693ZM35.523 21.5C35.523 22.0087 35.4977 22.5112 35.4481 23.0063L37.4382 23.2054C37.4943 22.6442 37.523 22.0753 37.523 21.5H35.523ZM35.4481 19.9934C35.4977 20.4886 35.523 20.9912 35.523 21.5H37.523C37.523 20.9246 37.4943 20.3556 37.4382 19.7943L35.4481 19.9934ZM38.9052 15.6101L35.695 19.2304L37.1914 20.5573L40.4016 16.9371L38.9052 15.6101ZM39.023 14.4467C39.2382 14.8194 39.1908 15.2881 38.9052 15.6101L40.4016 16.9371C41.2583 15.9709 41.4007 14.565 40.7551 13.4467L39.023 14.4467ZM35.909 9.05301L39.023 14.4467L40.7551 13.4467L37.641 8.05301L35.909 9.05301ZM34.8425 8.57331C35.2642 8.48702 35.6938 8.68024 35.909 9.05301L37.641 8.05301C36.9954 6.93472 35.7066 6.35504 34.4415 6.61392L34.8425 8.57331ZM30.1019 9.5434L34.8425 8.57331L34.4415 6.61392L29.7009 7.584L30.1019 9.5434ZM26.7083 7.8662C27.6309 8.28168 28.504 8.78822 29.3161 9.37449L30.4868 7.75291C29.5664 7.08846 28.5764 6.514 27.5296 6.04259L26.7083 7.8662ZM24.6413 2.68377L26.1703 7.27062L28.0676 6.63816L26.5387 2.05132L24.6413 2.68377ZM23.6926 2C24.1231 2 24.5052 2.27543 24.6413 2.68377L26.5387 2.05132C26.1303 0.826291 24.9839 0 23.6926 0V2ZM17.4646 2H23.6926V0H17.4646V2Z" fill="#CFBBBB"/>
</svg>
