<svg width="35" height="34" viewBox="0 0 35 34" fill="none" xmlns="http://www.w3.org/2000/svg">
<path d="M10.1667 4.55556C10.1667 2.59188 11.8083 1 13.8333 1C15.8584 1 17.5 2.59188 17.5 4.55556V8.11111H26.6667V17H30.3333C32.3584 17 34 18.5919 34 20.5556C34 22.5192 32.3584 24.1111 30.3333 24.1111H26.6667V33H17.5V29.4444C17.5 27.4808 15.8584 25.8889 13.8333 25.8889C11.8083 25.8889 10.1667 27.4808 10.1667 29.4444V33H1V24.1111H4.66667C6.69171 24.1111 8.33333 22.5192 8.33333 20.5556C8.33333 18.5919 6.69171 17 4.66667 17H1V8.11111H10.1667V4.55556Z" stroke="#CFBBBB" stroke-width="2"/>
</svg>
