<?xml version="1.0" standalone="no"?>
<!DOCTYPE svg PUBLIC "-//W3C//DTD SVG 20010904//EN"
 "http://www.w3.org/TR/2001/REC-SVG-20010904/DTD/svg10.dtd">
<svg version="1.0" xmlns="http://www.w3.org/2000/svg"
 width="512.000000pt" height="512.000000pt" viewBox="0 0 512.000000 512.000000"
 preserveAspectRatio="xMidYMid meet">
<metadata>
Created by potrace 1.14, written by Peter Selinger 2001-2017
</metadata>
<g transform="translate(0.000000,512.000000) scale(0.100000,-0.100000)"
fill="#000000" stroke="none">
<path d="M2504 3515 c-25 -25 -60 -76 -77 -113 -28 -58 -32 -77 -31 -147 0
-58 7 -96 23 -137 23 -60 119 -203 136 -203 17 0 113 143 136 203 33 85 32
198 -3 274 -32 69 -70 121 -109 149 l-29 20 -46 -46z"/>
<path d="M1750 3150 c0 -89 36 -258 90 -420 48 -146 107 -290 119 -290 7 0
244 -140 295 -175 26 -17 24 -12 -21 50 -90 126 -167 261 -217 385 -29 70 -69
211 -62 218 3 2 44 -12 92 -32 103 -42 247 -126 324 -190 29 -25 55 -44 56
-43 1 1 18 24 39 51 l37 48 -34 35 c-53 57 -205 171 -304 229 -94 55 -160 87
-321 154 l-93 39 0 -59z"/>
<path d="M3225 3151 c-280 -122 -427 -215 -587 -370 -153 -147 -236 -278 -302
-475 -25 -74 -25 -79 -9 -92 26 -19 28 -18 49 29 65 147 266 385 414 489 104
74 323 188 360 188 21 0 -28 -164 -86 -288 -42 -92 -120 -224 -187 -317 -45
-62 -47 -67 -21 -50 51 35 288 175 295 175 12 0 71 144 119 290 73 221 114
471 78 470 -7 0 -62 -22 -123 -49z"/>
<path d="M985 2594 c-95 -10 -93 -3 -34 -111 163 -303 348 -565 492 -698 169
-158 403 -245 617 -232 199 13 282 51 653 300 344 230 506 321 720 402 64 24
224 66 300 80 37 6 38 5 32 -17 -4 -13 -26 -56 -48 -97 -113 -200 -322 -372
-511 -421 -96 -24 -199 -26 -321 -4 l-92 17 -76 -51 c-41 -29 -78 -55 -81 -60
-7 -12 108 -76 190 -105 231 -82 505 -46 727 97 174 111 398 402 606 789 l52
96 -28 8 c-15 4 -100 7 -188 7 -278 -1 -418 -38 -729 -197 -200 -101 -396
-225 -612 -385 -151 -111 -232 -157 -344 -194 -89 -30 -104 -32 -235 -32 -125
0 -148 3 -213 26 -137 49 -280 155 -381 282 -48 60 -148 233 -139 241 8 9 203
-36 305 -70 178 -59 396 -172 607 -314 l59 -39 51 22 c28 13 65 32 83 43 l32
19 -127 91 c-202 144 -300 204 -511 312 -210 107 -330 152 -470 177 -87 15
-312 26 -386 18z"/>
</g>
</svg>
